<svg xmlns="http://www.w3.org/2000/svg"><defs><path d="M6 2h20v28l-10-6-10 6z"/><path d="M2 4h4v-2a2 2 0 0 1 4 0v2h12v-2a2 2 0 0 1 4 0v2h4v6h-28m0 2h28v18h-28"/><path d="M0 6h8l2-4h12l2 4h8v22h-32zm9 11a7 7 0 0 0 14 0 7 7 0 0 0-14 0"/><path d="M1 12l15 14 15-14-4-4-11 10-11-10z"/><path d="M20 1l4 4-10 11 10 11-4 4-14-15z"/><path d="M12 1l14 15-14 15-4-4 10-11-10-11z"/><path d="M1 20l15-14 15 14-4 4-11-10-11 10z"/><path d="M32 16a16 12 0 0 0-32 0 16 12 0 0 0 16 12h2l6 4v-6a16 12 0 0 0 8-10"/><path d="M1 14l4-4 8 8 14-14 4 4-18 18z"/><path d="M4 8l4-4 8 8 8-8 4 4-8 8 8 8-4 4-8-8-8 8-4-4 8-8z"/><path d="M7 14a7 7 0 0 0-7 7 7 7 0 0 0 7 7h20a5 5 0 0 0 5-5 5 5 0 0 0-5-5 10 10 0 0 0 1-4 10 10 0 0 0-10-10 10 10 0 0 0-10 10 7 7 0 0 0-1 0"/><path d="M14 0h4l1 6 1.707.707 5.293-3.414 2.707 2.707-3.414 5.293.707 1.707 6 1v4l-6 1-.707 1.707 3.414 5.293-2.707 2.707-5.293-3.414-1.707.707-1 6h-4l-1-6-1.707-.707-5.293 3.414-2.707-2.707 3.414-5.293-.707-1.707-6-1v-4l6-1 .707-1.707-3.414-5.293 2.707-2.707 5.293 3.414 1.707-.707 1-6zm2 10a6 6 0 0 0 0 12 6 6 0 0 0 0-12"/><path d="M4 4h12v4h-8v16h16v-8h4v12h-24zm22-2l4 4-14 14h-4v-4z"/><path d="M8 12h5v-4c0-6 4-7 11-6v5c-4 0-5 0-5 3v2h5l-1 6h-4v12h-6v-12h-5z"/><path d="M4 2v28h24v-20l-8-8z"/><path d="M0 4v24h32v-20h-16l-4-4z"/><path d="M0 16c0-7 6-12 16-12s16 5 16 12-6 12-16 12-16-5-16-12m2 2c0 4 6 6 14 6s14-2 14-6-6-6-14-6-14 2-14 6m4 0a3 3 0 0 0 6 0 3 3 0 0 0-6 0m20 0a3 3 0 0 0-6 0 3 3 0 0 0 6 0"/><path d="M0 10c0-4 3-8 8-8 4 0 7 3 8 4 1-1 4-4 8-4 6 0 8 4 8 8 0 8-14 19-16 20-2-1-16-12-16-20"/><path d="M16 0l16 16h-4v14h-8v-10h-8v10h-8v-14h-4z"/><path d="M16 0a16 16 0 0 1 0 32 16 16 0 0 1 0-32m3 14h-7v4h1v8h6zm-3-8a3 3 0 0 0 0 6 3 3 0 0 0 0-6"/><path d="M22 16v-4a6 6 0 0 0-12 0v4zm-18 0h2v-4a10 10 0 0 1 20 0v4h2v14h-24z"/><path d="M0 6l16 10 16-10zm0 3v17h32v-17l-16 10z"/><path d="M0 24a6 6 0 0 0 12 0v-16h14v10a6 6 0 0 0-8 6 6 6 0 0 0 12 0v-22h-22v16a6 6 0 0 0-8 6"/><path d="M4 4l20 10v-10h4v24h-4v-10l-20 10z"/><path d="M4 4h8v24h-8zm16 0h8v24h-8z"/><path d="M4 12a12 12 0 0 1 24 0c0 8-12 20-12 20s-12-12-12-20m7 0a5 5 0 0 0 10 0 5 5 0 0 0-10 0z"/><path d="M4 4l24 12-24 12z"/><path d="M4 4h4v10l20-10v24l-20-10v10h-4z"/><path d="M12 0a12 12 0 0 0-12 12 12 12 0 0 0 12 12 12 12 0 0 0 6.5-1.75l9.5 9.75 4-4-9.75-9.5a12 12 0 0 0 1.75-6.5 12 12 0 0 0-12-12m0 4a8 8 0 0 1 0 16 8 8 0 0 1 0-16"/><path d="M2 12h6l8-6v20l-8-6h-6z"/><path d="M2 12h6l8-6v20l-8-6h-6z"/><path d="M16 0l5 11 11 1-9 7 3 12-10-6-10 6 3-12-9-7 11-1"/><path d="M0 18l16-16 13 1 1 13-16 16zm20-9a3 3 0 0 0 6 0 3 3 0 0 0-6 0"/><path d="M4 4h6l2-2h8l2 2h6l1 4h-26zm1 6h22l-1 20h-20z"/><path d="M4 8h24l-12 18z"/><path d="M24 4v24l-18-12z"/><path d="M8 4v24l18-12z"/><path d="M4 24h24l-12-18z"/><path d="M5 8a37 37 0 0 0 26 14 13 13 0 0 1 13-16 13 13 0 0 1 10 4 13 13 0 0 0 8-3 13 13 0 0 1-5 7 13 13 0 0 0 7-2 13 13 0 0 1-7 7 37 37 0 0 1-36 39 37 37 0 0 1-21-6 37 37 0 0 0 19-5 16 16 0 0 1-12-9 16 16 0 0 0 6-1 16 16 0 0 1-11-13 16 16 0 0 0 6 2 14 14 0 0 1-3-18"/><path d="M10 8a6 6 0 0 1 12 0v4a6 6 0 0 1-12 0zm-8 18c1-3 8-6 12-6h4c4 0 11 3 12 6v2h-28z"/><path d="M15 0h2l15 29-1 1h-30l-1-1zm4 8h-6l1 12h4zm-3 14a3 3 0 0 0 0 6 3 3 0 0 0 0-6"/></defs></svg>