<svg xmlns="http://www.w3.org/2000/svg" viewBox="0 0 32 32">
    <g>
      <path d=" M16 5 A11 11 0 0 0 16 27 A11 11 0 0 0 16 5 M16 10 A6 6 0 0 1 16 22 A6 6 0 0 1 16 10 "/>
      <path d=" M14 0 L18 0 L20 8 L12 8 z M14 32 L18 32 L20 24 L12 24 z "/>
      <path transform="rotate(45 16 16)" d=" M14 0 L18 0 L20 8 L12 8 z M14 32 L18 32 L20 24 L12 24 z "/>
      <path transform="rotate(90 16 16)" d=" M14 0 L18 0 L20 8 L12 8 z M14 32 L18 32 L20 24 L12 24 z "/>
      <path transform="rotate(135 16 16)" d=" M14 0 L18 0 L20 8 L12 8 z M14 32 L18 32 L20 24 L12 24 z "/>
    </g>
</svg>
