<svg xmlns="http://www.w3.org/2000/svg" width="0" height="0"><defs><path d="M6 2 L26 2 L26 30 L16 24 L6 30 Z" id="bookmark"></path><path d="M2 4 L6 4 L6 2 A2 2 0 0 1 10 2 L10 4 L22 4 L22 2 A2 2 0 0 1 26 2 L26 4 L30 4 L30 10 L2 10 M2 12 L30 12 L30 30 L2 30" id="calendar"></path><path d="M0 6 L8 6 L10 2 L22 2 L24 6 L32 6 L32 28 L0 28 z M9 17 A7 7 0 0 0 23 17 A7 7 0 0 0 9 17" id="camera"></path><path d="M1 12 L16 26 L31 12 L27 8 L16 18 L5 8 z" id="carat-down"></path><path d="M20 1 L24 5 L14 16 L24 27 L20 31 L6 16 z" id="carat-left"></path><path d="M12 1 L26 16 L12 31 L8 27 L18 16 L8 5 z" id="carat-right"></path><path d="M1 20 L16 6 L31 20 L27 24 L16 14 L5 24 z" id="carat-up"></path><path d="M32 16 A16 12 0 0 0 0 16 A16 12 0 0 0 16 28 L18 28 L24 32 L24 26 A16 12 0 0 0 32 16" id="chat"></path><path d="M1 14 L5 10 L13 18 L27 4 L31 8 L13 26 z" id="check"></path><path d="M4 8 L8 4 L16 12 L24 4 L28 8 L20 16 L28 24 L24 28 L16 20 L8 28 L4 24 L12 16 z" id="close"></path><path d="M7 14 A7 7 0 0 0 0 21 A7 7 0 0 0 7 28 H27 A5 5 0 0 0 32 23 A5 5 0 0 0 27 18 A10 10 0 0 0 28 14 A10 10 0 0 0 18 4 A10 10 0 0 0 8 14 A7 7 0 0 0 7 14" id="cloud"></path><path d="M14 0 H18 L19 6 L20.707 6.707 L26 3.293 L28.707 6 L25.293 11.293 L26 13 L32 14 V18 L26 19 L25.293 20.707 L28.707 26 L26 28.707 L20.707 25.293 L19 26 L18 32 L14 32 L13 26 L11.293 25.293 L6 28.707 L3.293 26 L6.707 20.707 L6 19 L0 18 L0 14 L6 13 L6.707 11.293 L3.293 6 L6 3.293 L11.293 6.707 L13 6 L14 0 z M16 10 A6 6 0 0 0 16 22 A6 6 0 0 0 16 10" id="cog"></path><path d="M4 4 L16 4 L16 8 L8 8 L8 24 L24 24 L24 16 L28 16 L28 28 L4 28 z M26 2 L30 6 L16 20 L12 20 L12 16 z" id="compose"></path><path d=" M16 4 L28 4 L28 16 L24 12 L20 16 L16 12 L20 8z M4 16 L8 20 L12 16 L16 20 L12 24 L16 28 L4 28z " id="expand"></path><path d=" M4 4 L12 4 L12 8 L8 8 L8 24 L24 24 L24 20 L28 20 L28 28 L4 28 z M16 4 L28 4 L28 16 L24 12 L16 20 L12 16 L20 8z " id="external"></path><path d="M8 12 L13 12 L13 8 C13 2 17 1 24 2 L24 7 C20 7 19 7 19 10 L19 12 L24 12 L23 18 L19 18 L19 30 L13 30 L13 18 L8 18 z" id="facebook"></path><path d="M4 2 L4 30 L28 30 L28 10 L20 2 z" id="file"></path><path d="M0 4 L0 28 L32 28 L32 8 L16 8 L12 4 z" id="folder"></path><path d=" M2 18 L30 2 L14 30 L14 18z " id="geolocation"></path><path d=" M0 18 C0 11 3 4 5 2 L10 7 C12 6.5 14 6 16 6 C18 6 20 6.5 22 7 L27 2 C29 4 32 11 32 18 C32 25 26 30 16 30 C6 30 0 25 0 18 M2 20 C2 24 8 28 16 28 C24 28 30 24 30 20 C30 16 24 14 16 14 C8 14 2 16 2 20 M6 21 A3 3 0 0 0 12 21 A3 3 0 0 0 6 21 M26 21 A3 3 0 0 0 20 21 A3 3 0 0 0 26 21 z " id="github"></path><path d=" M2 2 L10 2 L10 10 L2 10z M12 2 L20 2 L20 10 L12 10z M22 2 L30 2 L30 10 L22 10z M2 12 L10 12 L10 20 L2 20z M12 12 L20 12 L20 20 L12 20z M22 12 L30 12 L30 20 L22 20z M2 22 L10 22 L10 30 L2 30z M12 22 L20 22 L20 30 L12 30z M22 22 L30 22 L30 30 L22 30z " id="grid"></path><path d="M0 10 C0 6, 3 2, 8 2 C12 2, 15 5, 16 6 C17 5, 20 2, 24 2 C30 2, 32 6, 32 10 C32 18, 18 29, 16 30 C14 29, 0 18, 0 10" id="heart"></path><path d="M16 0 L32 16 L28 16 L28 30 L20 30 L20 20 L12 20 L12 30 L4 30 L4 16 L0 16 Z" id="home"></path><path d="M16 0 A16 16 0 0 1 16 32 A16 16 0 0 1 16 0 M19 14 L12 14 L12 18 L13 18 L13 26 L19 26 z M16 6 A3 3 0 0 0 16 12 A3 3 0 0 0 16 6" id="info"></path><path d=" M0 16 A8 8 0 0 1 8 8 L14 8 A8 8 0 0 1 22 16 L18 16 A4 4 0 0 0 14 12 L8 12 A4 4 0 0 0 4 16 A4 4 0 0 0 8 20 L10 24 L8 24 A8 8 0 0 1 0 16z M22 8 L24 8 A8 8 0 0 1 32 16 A8 8 0 0 1 24 24 L18 24 A8 8 0 0 1 10 16 L14 16 A4 4 0 0 0 18 20 L24 20 A4 4 0 0 0 28 16 A4 4 0 0 0 24 12z " id="link"></path><path d=" M3 8 A3 3 0 0 0 9 8 A3 3 0 0 0 3 8 M12 6 L28 6 L28 10 L12 10z M3 16 A3 3 0 0 0 9 16 A3 3 0 0 0 3 16 M12 14 L28 14 L28 18 L12 18z M3 24 A3 3 0 0 0 9 24 A3 3 0 0 0 3 24 M12 22 L28 22 L28 26 L12 26z " id="list"></path><path d="M22 16 L22 12 A6 6 0 0 0 10 12 L10 16 z M4 16 L6 16 L6 12 A10 10 0 0 1 26 12 L26 16 L28 16 L28 30 L4 30 z" id="lock"></path><path d="M0 6 L16 16 L32 6 z M0 9 L0 26 L32 26 L32 9 L16 19 z" id="mail"></path><path d="M0 24 A6 6 0 0 0 12 24 V8 H26 V18 A6 6 0 0 0 18 24 A6 6 0 0 0 30 24 V2 H8 V18 A6 6 0 0 0 0 24" id="music-note"></path><path d="M4 4 L24 14 V4 H28 V28 H24 V18 L4 28 z" id="next"></path><path d="M4 4 H12 V28 H4 z M20 4 H28 V28 H20 z" id="pause"></path><path d=" M0 4 L0 28 L32 28 L32 4 z M4 24 L10 10 L15 18 L18 14 L24 24z M25 7 A4 4 0 0 1 25 15 A4 4 0 0 1 25 7 " id="picture"></path><path d="M4 12 A12 12 0 0 1 28 12 C28 20, 16 32, 16 32 C16 32, 4 20 4 12 M11 12 A5 5 0 0 0 21 12 A5 5 0 0 0 11 12 Z" id="pin"></path><path d="M4 4 L28 16 L4 28 z" id="play"></path><path d="M4 4 H8 V14 L28 4 V28 L8 18 V28 H4 z" id="previous"></path><path d="M6 8 L12 14 L8 14 L8 20 L18 20 L18 24 L4 24 L4 14 L0 14 z M14 8 L28 8 L28 18 L32 18 L26 24 L20 18 L24 18 L24 12 L14 12z" id="repost"></path><path d="M12 0 A12 12 0 0 0 0 12 A12 12 0 0 0 12 24 A12 12 0 0 0 18.5 22.25 L28 32 L32 28 L22.25 18.5 A12 12 0 0 0 24 12 A12 12 0 0 0 12 0 M12 4 A8 8 0 0 1 12 20 A8 8 0 0 1 12 4" id="search"></path><path d=" M2 12 L8 12 L16 6 L16 26 L8 20 L2 20 z M32 16 A16 16 0 0 1 27.5 27.5 L24.5 24.5 A12 12 0 0 0 28 16 A12 12 0 0 0 24.5 7.5 L27.5 4.5 A16 16 0 0 1 32 16 M25 16 A8 8 0 0 1 22 22 L19.5 19.5 A4 4 0 0 0 21 16 A4 4 0 0 0 19.5 12.5 L22 10 A8 8 0 0 1 25 16 " id="speaker-volume"></path><path d="M2 12 L8 12 L16 6 L16 26 L8 20 L2 20 z" id="speaker"></path><path d="M16 0 L21 11 L32 12 L23 19 L26 31 L16 25 L6 31 L9 19 L0 12 L11 11" id="star"></path><path d="M0 18 L16 2 L29 3 L30 16 L14 32 z M20 9 A3 3 0 0 0 26 9 A3 3 0 0 0 20 9" id="tag"></path><path d="M4 4 L10 4 L12 2 L20 2 L22 4 L28 4 L29 8 L3 8 z M5 10 L27 10 L26 30 L6 30 z" id="trash"></path><path d="M4 8 H28 L16 26 z" id="triangle-down"></path><path d="M24 4 V28 L6 16 z" id="triangle-left"></path><path d="M8 4 V28 L26 16 z" id="triangle-right"></path><path d="M4 24 H28 L16 6 z" id="triangle-up"></path><path d="M2 4 C6 8 10 12 15 11 A6 6 0 0 1 22 4 A6 6 0 0 1 26 6 A8 8 0 0 0 31 4 A8 8 0 0 1 28 8 A8 8 0 0 0 32 7 A8 8 0 0 1 28 11 A18 18 0 0 1 10 30 A18 18 0 0 1 0 27 A12 12 0 0 0 8 24 A8 8 0 0 1 3 20 A8 8 0 0 0 6 19.5 A8 8 0 0 1 0 12 A8 8 0 0 0 3 13 A8 8 0 0 1 2 4" id="twitter"></path><path d="M10 8 A6 6 0 0 1 22 8 L22 12 A6 6 0 0 1 10 12 z M2 26 C3 23 10 20 14 20 L18 20 C22 20 29 23 30 26 L30 28 L2 28 z" id="user"></path><path d=" M0 6 L0 26 L24 26 L24 20 C24 20 30 24 32 24 L32 8 C30 8 24 12 24 12 L24 6 z " id="video"></path><path d="M15 0 H17 L32 29 L31 30 L1 30 L0 29 z M19 8 L13 8 L14 20 L18 20 z M16 22 A3 3 0 0 0 16 28 A3 3 0 0 0 16 22" id="warning"></path></defs></svg>