<!-- Geomicons Open Sprite -->

<svg id="go-sprite" xmlns="http://www.w3.org/2000/svg" viewBox="0 0 32 128" width="32" height="128" fill="#0cf">

  <g id="pin" transform="translate(0,32)">
    <path d="
      M4 12
      A12 12 0 0 1 28 12
      C28 20, 16 32, 16 32
      C16 32, 4 20 4 12
      M11 12
      A5 5 0 0 0 21 12
      A5 5 0 0 0 11 12
      Z" />
  </g>

  <g id="heart" transform="translate(0,64)">
    <path d="
      M0 10
      C0 6, 3 2, 8 2
      C12 2, 15 5, 16 6
      C17 5, 20 2, 24 2
      C30 2, 32 6, 32 10
      C32 18, 18 29, 16 30
      C14 29, 0 18, 0 10
    " />
  </g>

</svg>

