<svg id="speaker-volume" xmlns="http://www.w3.org/2000/svg" viewBox="0 0 32 32" width="32" height="32">

  <!--
  <path fill="none" stroke="red" stroke-width="4" opacity="0"
    d="
      M20 10 
      A8 8 0 0 1 20 22
      M26 6
      A14 14 0 0 1 26 26
    "/>
    -->

  <path d="
      M2 12 L8 12 L16 6 L16 26 L8 20 L2 20 z

      M32 16
      A16 16 0 0 1 27.5 27.5
      L24.5 24.5
      A12 12 0 0 0 28 16
      A12 12 0 0 0 24.5 7.5
      L27.5 4.5
      A16 16 0 0 1 32 16

      M25 16
      A8 8 0 0 1 22 22
      L19.5 19.5
      A4 4 0 0 0 21 16
      A4 4 0 0 0 19.5 12.5
      L22 10
      A8 8 0 0 1 25 16
    "/>

</svg>

